<?xml version="1.0" encoding="utf-8"?><!-- Uploaded to: SVG Repo, www.svgrepo.com, Generator: SVG Repo Mixer Tools -->
<svg fill="#fff" width="800px" height="800px" viewBox="0 0 24 24" id="right-direction" data-name="Flat Color" xmlns="http://www.w3.org/2000/svg" class="icon flat-color"><path id="primary" d="M21.52,10.7l-6.3-7.35a1,1,0,0,0-1.41-.11l-3,2.6a1,1,0,0,0-.11,1.41L12.16,9H4a2,2,0,0,0-2,2v2a2,2,0,0,0,2,2h8.16l-1.5,1.75a1,1,0,0,0,.11,1.41l3,2.6a1,1,0,0,0,1.41-.11l6.3-7.35A2,2,0,0,0,21.52,10.7Z" style="fill: rgb(255, 255, 255);"></path></svg>